# xmcd CD database file
#
# Track frame offsets:
#	150
#	23528
#	38718
#	61696
#	74439
#	92020
#	106650
#	136863
#	149928
#	166685
#	194731
#	229434
#	246017
#	266997
#	293523
#	309753
#	331449
#
# Disc length: 4664 seconds
#
# Revision: 1
# Processed by: cddbd v1.5.2PL0 Copyright (c) Steve Scherf et al.
# Submitted via: CDex 1.70beta2
#
DISCID=f0123611
DTITLE=Bob Dylan - Pure (An Intimate Look At Bob Dylan)
DYEAR=2011
DGENRE=Country
TTITLE0=Trouble In Mind
TTITLE1=Girl From The North Country
TTITLE2=Most Of The Time
TTITLE3=She Belongs To Me
TTITLE4=Billy 1
TTITLE5=Shooting Star
TTITLE6=Sugar Baby
TTITLE7=You're Gonna Make Me Lonesome When You Go
TTITLE8=Tomorrow Night
TTITLE9=Every Grain Of Sand
TTITLE10=Percy's Song
TTITLE11=Born In Time
TTITLE12=Boots Of Spanish Leather
TTITLE13=This Dream Of You
TTITLE14=Spanish Is The Loving Tongue
TTITLE15=If You See Her, Say Hello
TTITLE16=Moonshiner
EXTD=YEAR: 2011
EXTT0=
EXTT1=
EXTT2=
EXTT3=
EXTT4=
EXTT5=
EXTT6=
EXTT7=
EXTT8=
EXTT9=
EXTT10=
EXTT11=
EXTT12=
EXTT13=
EXTT14=
EXTT15=
EXTT16=
PLAYORDER=
